# xmcd
#
# Track frame offsets: 
#        200
#        20885
#        31807
#        51375
#        65865
#        74925
#        86787
#        101925
#        109492
#        121375
#        133300
#        159075
#
# Disc length: 2258 seconds
#
# Revision: 4
# Processed by: cddbd v1.5.2PL0 Copyright (c) Steve Scherf et al.
# Submitted via: ExactAudioCopy v0.95b4
#
DISCID=c108d00c
DTITLE=Captain Beefheart and the Magic Band - Ice Cream for Crow
DYEAR=1982
DGENRE=Prog-Rock
TTITLE0=Ice Cream for Crow
TTITLE1=The Host the Ghost the Most Holy-O
TTITLE2=Semi-Multicoloured Caucasian
TTITLE3=Hey Garland, I Dig Your Tweed Coat
TTITLE4=Evening Bell
TTITLE5=Cardboard Cutout Sundown
TTITLE6=The Past Sure Is Tense
TTITLE7=Ink Mathematics
TTITLE8=The Witch Doctor Life
TTITLE9="81" Poop Hatch
TTITLE10=The Thousandth and Tenth Day of the Human Totem Pole
TTITLE11=Skeleton Makes Good
EXTD=All words and music by Don Van Vliet.\nDon Van Vliet [Captain Beefh
EXTD=eart]: vocals, harmonica, soprano sax, Chinese gongs, prop horn\n
EXTD=Jeff Moris Tepper: steel appendage guitar, slide guitar, acoustic
EXTD=guitar\nGary Lucas: glass-finger guitar, slide guitar, guitar, N
EXTD=ational steel duolian\nRichard "Midnight Hatsize" Synder: bass gu
EXTD=itar, marimba, viola\nCliff R. Martinez: drums, shake bouquet, gl
EXTD=ass washboard, metal drums\nEric Drew Feldman: Rhodes piano (11),
EXTD=synthesized bass (11]\nSee <http://www.beefheart.com/datharp/alb
EXTD=ums/official/leachicfc.htm> for detailed sessionography.\nRecorde
EXTD=d and mastered by Phil Brown at Warner Brothers Recording Studios
EXTD=, North Hollywood US-CA, 1982, except track 10, prob. recorded 19
EXTD=76, location unknown.\nProduced and arranged by Don Van Vliet.\nO
EXTD=riginally released 1982-09 as Epic/Virgin LP ARE 38274 (US) and V
EXTD=irgin LP V2237 (GB).\nCD: Caroline Records CAROL 1632-2 (1990-04)
EXTD=, UPC 017046163224.
EXTT0=
EXTT1=
EXTT2=
EXTT3=
EXTT4=
EXTT5=
EXTT6=
EXTT7=
EXTT8=
EXTT9=
EXTT10=
EXTT11=
PLAYORDER=
